<?xml version="1.0" encoding="UTF-8"?>
<svg viewBox="0 0 560 420" xmlns="http://www.w3.org/2000/svg">
<defs>
<style>.cls-1,.cls-10,.cls-12,.cls-8{fill:none;}.cls-2{isolation:isolate;}.cls-3{fill:#18BFBC;mix-blend-mode:multiply;}.cls-13,.cls-4{fill:#fff;}.cls-5{clip-path:url(#c);}.cls-6{fill:#18BFBC;}.cls-7{clip-path:url(#b);}.cls-10,.cls-12,.cls-13,.cls-8,.cls-9{stroke:#3a3836;}.cls-10,.cls-12,.cls-8{stroke-linecap:round;stroke-linejoin:round;}.cls-13,.cls-8,.cls-9{stroke-width:2px;}.cls-9{fill:#18BFBC;}.cls-13,.cls-9{stroke-miterlimit:10;}.cls-10{stroke-width:2.21px;}.cls-11{fill:url(#a);}.cls-12{stroke-width:2.12px;}</style>
<clipPath id="c">
<rect class="cls-1" transform="translate(-1.39 3) rotate(-.36)" x="404.41" y="194.43" width="131.14" height="51.24"/>
</clipPath>
<clipPath id="b">
<rect class="cls-1" transform="translate(-.53 .61) rotate(-.36)" x="29.3" y="57.83" width="131.14" height="51.24"/>
</clipPath>
<linearGradient id="a" x1="269" x2="269" y1="51.51" y2="103.87" gradientUnits="userSpaceOnUse">
<stop stop-color="#18BFBC" offset="0"/>
<stop stop-color="#18BFBC" offset=".54"/>
<stop stop-color="#18BFBC" offset="1"/>
</linearGradient>
</defs>
<g class="cls-2">
<g data-name="Layer 1">
<rect class="cls-3" x="214.05" y="381.5" width="104.71" height="17.38" rx="6.7"/>
<rect class="cls-3" x="364.67" y="348.43" width="104.71" height="17.38" rx="6.7"/>
<rect class="cls-3" x="98.9" y="356.43" width="104.71" height="17.38" rx="6.7"/>
<path class="cls-4" d="m107.17 250.88h-6.84a6.77 6.77 0 0 1-6.71-7.6l2.87-23.17 5.88-4.46h26.43z"/>
<polygon class="cls-4" points="440.11 123.66 453.2 125.32 457.03 130.2 457.48 139.81 443.94 141.54 435.1 137.15"/>
<g class="cls-5">
<path class="cls-6" d="m535.12 244.58a31.88 31.88 0 0 0-2.86-13.06 25.87 25.87 0 0 0-7.69-9.79 20 20 0 0 0-10.57-4.11 19.15 19.15 0 0 0-11 2.59 39 39 0 0 0-11.35-17.79 28.71 28.71 0 0 0-17.55-7.27 27.93 27.93 0 0 0-17.92 5.67 37.37 37.37 0 0 0-12.34 16.72 22.14 22.14 0 0 0-12.57-5.4 21 21 0 0 0-13 3.32 27.34 27.34 0 0 0-9.69 11.07 34.78 34.78 0 0 0-3.49 15.58z"/>
</g>
<g class="cls-7">
<path class="cls-6" d="M160,108a32,32,0,0,0-2.86-13,25.8,25.8,0,0,0-7.69-9.79A19.8,19.8,0,0,0,138.85,81a19,19,0,0,0-10.92,2.58,39,39,0,0,0-11.35-17.79A28.77,28.77,0,0,0,99,58.55a27.93,27.93,0,0,0-17.92,5.67A37.37,37.37,0,0,0,68.77,80.94a22.14,22.14,0,0,0-12.57-5.4,21,21,0,0,0-13,3.32,27.34,27.34,0,0,0-9.69,11.07A34.78,34.78,0,0,0,30,105.51Z"/>
</g>
<path class="cls-4" d="M98.39,143.54s-3.53-37.92,29.75-53.15c0,0,29-16.45,57.84,10.9,0,0,16.18,14.47,14,42l38.78-29.76s13.37-10.54,24.77,4.27c0,0,10.28,12.89-7.45,26.61L198.28,199.1l3.73,80,37-38.82-3-6.66-9.72-2.84s-3.25-3.08-.93-12.75l8.2-3.93s2.09-42.09,48.57-47.33c0,0,44.57-2,52.63,47.68l8.26,3.58v11.84L332,233.64l-5.46,11.51L358,277.52l-3-101.2-76.91-36.8s-12.7-5.72-9.24-20.23,18.8-12.76,18.8-12.76l55.54,20.1s-4.85-25.24,18.7-44.15a49.19,49.19,0,0,1,48.17-8.28s41.93,15,32.4,59.82l-1.25,4.25,71.8-16s19.65-7.88,27.4,13.31c0,0,5.34,21.52-24.82,25.28l-62.4,17.44,2,42.39s3.92,4.18,3.92,12.93-.08,56.47-.08,56.47,0,17.52-22,18.23c0,0-16.26.72-19-23.25l-16.83,6.13L400,319.45l7.39,6.21a7.78,7.78,0,0,1-7.52,5.36l-.44,17.9s-2.19,19.29-23.57,16.83c0,0-14.83.36-15.92-28.6v-7.6l-39.67-41.44,7.18,98.4s-.78,15.18-26.91,7a17.24,17.24,0,0,1-10.9-12.87l-16.44-27.08H259l-13.36,37.63s-15.16,16.92-32.39.64c0,0-11.14-6.05.93-29.43l16.91-45.17s2.7-6.33,7.87-7.87l1.58-20.24L204.49,326l1,19.1s.12,22.45-16.41,22.9-20.73-9.74-22.34-20.48l-3.16-21.57s-4,.32-5.45-5.71l4.06-3.27-3-19.08s-1.8-5.64-9.69-.91l-17.61,56.8s-2.86,19.42-24.76,14.1c0,0-16.89.77-10.59-28.76l16.13-122L81.59,222s-26.93,4.9-29.38-31.59c0,0-2-18.95,29.89-35Z"/>
<path class="cls-8" d="m187.84 104.18c-14.7 0-26.63 14.81-26.63 33.09s10.93 33.09 25.63 33.09"/>
<path class="cls-8" d="m145.55 137.89a7.58 7.58 0 1 0-7.58 7.58 7.58 7.58 0 0 0 7.58-7.58z"/>
<path class="cls-9" d="m141.82 79.21a7.18 7.18 0 1 0-2.56-9.83 7.18 7.18 0 0 0 2.56 9.83z"/>
<path class="cls-8" d="M145.89,80.21l.06,5.4"/>
<path class="cls-8" d="M162.2,316.92l-2.72-17.87a4,4,0,0,0-4-3.79c-2.11,0-6.51-.3-6.58,3.75l-12.76,42.71a114,114,0,0,1-6.64,17.34,17.89,17.89,0,0,1-3.29,4.88c-3.62,3.63-8.54,4.66-13.67,4.67a19.31,19.31,0,0,1-13.67-5.67c-3.63-3.62-3.67-8.54-3.67-13.67l17.48-132.22-16.22,3.06c-15.6,3.14-28.2,3.46-37.09-7.64l-.5-.86A30.8,30.8,0,0,1,61,170.76l37.41-27.22"/>
<path class="cls-8" d="M204.49,326l1,19.1c0,11.42-6.95,23.12-18.4,23-11.28-.14-18.84-8.14-20.35-20.58l-3.16-21.06"/>
<path class="cls-8" d="m200 143.24 38.78-29.76a17.21 17.21 0 0 1 24 3.18 17.22 17.22 0 0 1-2 23.31l-62.95 59.58 4.2 79.57"/>
<line class="cls-8" x1="84.82" x2="113.97" y1="188.47" y2="172.3"/>
<path class="cls-8" d="m104.48 178.14s9 9.46 8.23 38.91"/>
<path class="cls-8" d="m119 176.46s8.3 18.81-7 41.51"/>
<path class="cls-8" d="m323.11 225.14c0.5 15.83-16.54 33.62-38.21 34.29s-39.78-16-40.27-31.84 0-28.69 38.33-29.89c36.62-1.12 39.66 11.62 40.15 27.44z"/>
<path class="cls-8" d="m334.72 214.47 6.14 2.81a3.82 3.82 0 0 1 2.12 3.49v7a3.75 3.75 0 0 1-2.54 3.65l-7.32 2.2"/>
<path class="cls-8" d="m233.52 214.12-6.52 3.16a3.8 3.8 0 0 0-2.12 3.49v7a3.74 3.74 0 0 0 2.53 3.65l7.32 2.2"/>
<path class="cls-8" d="M326.58,245.15l59.65,62.65a179.21,179.21,0,0,0,21.2,17.86s.12,12.17-22.27-1c0,0-14,15.14-28.58,2.46l-36.27-39,7.28,95.7a11.14,11.14,0,0,1-10.34,12.09l-4.4.31A22.26,22.26,0,0,1,289.64,379l-5.81-25.43H261"/>
<path class="cls-8" d="m238.25 241.06-58.92 61.94a179.83 179.83 0 0 1-21.19 17.86s-0.13 12.17 22.26-1c0 0 14 15.14 28.58 2.46l31.58-33.14-1.56 20.15"/>
<line class="cls-8" x1="273.24" x2="293.26" y1="353.53" y2="386.51"/>
<rect class="cls-8" transform="translate(136.25 -60.59) rotate(20.13)" x="218.75" y="305.64" width="40.11" height="95.77" rx="20.06"/>
<path class="cls-8" d="m232.2 247.42c17 16.22 8.36 41.67 8.36 41.67s13.15-10.81 8.83-34.29"/>
<path class="cls-8" d="m358.05 278.2-3-101.88-76.91-36.8a17.34 17.34 0 0 1-8.47-22.52 17.35 17.35 0 0 1 21.91-9.37l51.62 19"/>
<path class="cls-8" d="m399.91 331-0.33 15.89a19.34 19.34 0 0 1-38.68 0l-0.9-17.34"/>
<path class="cls-8" d="m418.06 285.09c-2.11 0-17.39 3.51-17.46 7.55l-0.6 26.81"/>
<rect class="cls-8" x="419.01" y="212.57" width="40.11" height="95.77" rx="20.06"/>
<path class="cls-8" d="m441.22 138.27 76.78-17.07a18.8 18.8 0 0 1 21.94 12.46 18.8 18.8 0 0 1-12.8 24l-73.94 20.66 1.64 41.73"/>
<path class="cls-8" d="M350.36,95.57c5.54-1.94,12.66-3.16,27.3-2.82,23.13.55,33.07,9.17,37.16,15,2,2.81,2.45,8.59,2.16,12-1,11.7-11.32,40.83-60.73,36.22"/>
<ellipse class="cls-10" transform="translate(240.77 536.22) rotate(-81.61)" cx="430.93" cy="128.66" rx="7.92" ry="6.51"/>
<path class="cls-9" d="m403.62 64.32a7.18 7.18 0 1 0-1.17-10.09 7.18 7.18 0 0 0 1.17 10.09z"/>
<path class="cls-8" d="m407.51 65.88-0.83 6.43"/>
<path class="cls-9" d="m277.67 159.25a7.18 7.18 0 1 0-2.45-9.85 7.17 7.17 0 0 0 2.45 9.85z"/>
<path class="cls-8" d="m281.73 160.31v6.48"/>
<path class="cls-8" d="m352.67 152.55c-1.35 21.88 2.34 23.77 2.34 23.77l5.73-16"/>
<path class="cls-3" d="m363.64 162.61s36.74 34.29 77.34-2.33l-1.18-16.06s-27.25 48.15-76.16 18.39z"/>
<path class="cls-3" d="m130.39 183.12s31.93 21.83 61.93-5.94l-5.48-6.82s-20.47 24.2-56.45 12.76z"/>
<path class="cls-3" d="m257.59 261.08s21.17 22.86 58.28 12.05c0 0-1.06-10.18 3.44-19 0-0.01-24.97 27.11-61.72 6.95z"/>
<polygon class="cls-3" points="273.96 354.72 288.45 377.33 283.83 352.9"/>
<circle class="cls-8" cx="284" cy="218.05" r="50.48"/>
<path class="cls-8" d="M319.31,254.12c-8.28,19.61,1,34,1,34s-.81-25.66,11.73-37.23"/>
<circle class="cls-8" cx="393.46" cy="121.88" r="50.48"/>
<path class="cls-8" d="m453.2 135.6a106.85 106.85 0 0 0 0 42.72s-19.92-15.23-12-40"/>
<circle class="cls-8" cx="149.45" cy="136.27" r="50.57"/>
<path class="cls-8" d="m197.81 199.55c-1.21-22.87-11-29.19-11-29.19"/>
<path class="cls-8" d="m198.26 197.22s8.21-21.12-2.89-39.73"/>
<rect class="cls-8" x="176.43" y="191.91" width="10.32" height="10.61" rx=".9"/>
<rect class="cls-8" x="425.78" y="175.51" width="10.32" height="10.61" rx=".9"/>
<rect class="cls-8" x="291.32" y="278.2" width="10.32" height="10.61" rx=".9"/>
<polygon class="cls-11" points="291.67 90.78 291.67 64.6 269 51.51 246.33 64.6 246.33 90.78 269 103.87"/>
<polygon class="cls-8" points="291.67 90.78 291.67 64.6 269 51.51 246.33 64.6 246.33 90.78 269 103.87"/>
<path class="cls-8" d="m443.94 124.59h6.16a6.93 6.93 0 0 1 6.93 6.93v2.93"/>
<path class="cls-8" d="m96.49 220.11-2.87 23.17a6.77 6.77 0 0 0 6.71 7.6h6.84"/>
<path class="cls-12" d="m452.18 303.46a243.21 243.21 0 0 1 64.44 73.87"/>
<path class="cls-12" d="m41 377.33a242 242 0 0 1 59.1-69.65"/>
<!-- <path class="cls-13" d="m513.89 297.5 7 2.28-7 2.28-2.29 7-2.28-7-7-2.28 7-2.28 2.28-7z"/> -->
<!-- <path class="cls-13" d="m43.32 141.26 7 2.28-7 2.28-2.28 7-2.28-7-7-2.28 7-2.28 2.28-7z"/> -->
</g>
</g>
</svg>
